<svg width="14" height="15" viewBox="0 0 14 15" fill="none" xmlns="http://www.w3.org/2000/svg">
<path d="M0 2.46094V1.64062C0 1.25098 0.313477 0.9375 0.703125 0.9375H3.98438L4.25977 0.389648C4.37695 0.149414 4.62012 0 4.88672 0H8.23535C8.50195 0 8.74512 0.149414 8.86523 0.389648L9.14062 0.9375H12.4219C12.8115 0.9375 13.125 1.25098 13.125 1.64062V2.46094C13.125 2.6543 12.9668 2.8125 12.7734 2.8125H0.351562C0.158203 2.8125 0 2.6543 0 2.46094ZM12.1875 4.10156V13.5938C12.1875 14.3701 11.5576 15 10.7812 15H2.34375C1.56738 15 0.9375 14.3701 0.9375 13.5938V4.10156C0.9375 3.9082 1.0957 3.75 1.28906 3.75H11.8359C12.0293 3.75 12.1875 3.9082 12.1875 4.10156ZM4.21875 6.09375C4.21875 5.83594 4.00781 5.625 3.75 5.625C3.49219 5.625 3.28125 5.83594 3.28125 6.09375V12.6562C3.28125 12.9141 3.49219 13.125 3.75 13.125C4.00781 13.125 4.21875 12.9141 4.21875 12.6562V6.09375ZM7.03125 6.09375C7.03125 5.83594 6.82031 5.625 6.5625 5.625C6.30469 5.625 6.09375 5.83594 6.09375 6.09375V12.6562C6.09375 12.9141 6.30469 13.125 6.5625 13.125C6.82031 13.125 7.03125 12.9141 7.03125 12.6562V6.09375ZM9.84375 6.09375C9.84375 5.83594 9.63281 5.625 9.375 5.625C9.11719 5.625 8.90625 5.83594 8.90625 6.09375V12.6562C8.90625 12.9141 9.11719 13.125 9.375 13.125C9.63281 13.125 9.84375 12.9141 9.84375 12.6562V6.09375Z" fill="black"/>
</svg>
