<svg width="15" height="15" viewBox="0 0 15 15" fill="none" xmlns="http://www.w3.org/2000/svg">
<path d="M7.5 0C3.35685 0 0 3.35685 0 7.5C0 11.6431 3.35685 15 7.5 15C11.6431 15 15 11.6431 15 7.5C15 3.35685 11.6431 0 7.5 0ZM7.01613 9.91935C7.01613 10.1855 6.79839 10.4032 6.53226 10.4032H5.08065C4.81452 10.4032 4.59677 10.1855 4.59677 9.91935V5.08065C4.59677 4.81452 4.81452 4.59677 5.08065 4.59677H6.53226C6.79839 4.59677 7.01613 4.81452 7.01613 5.08065V9.91935ZM10.4032 9.91935C10.4032 10.1855 10.1855 10.4032 9.91935 10.4032H8.46774C8.20161 10.4032 7.98387 10.1855 7.98387 9.91935V5.08065C7.98387 4.81452 8.20161 4.59677 8.46774 4.59677H9.91935C10.1855 4.59677 10.4032 4.81452 10.4032 5.08065V9.91935Z" fill="black"/>
</svg>
