<svg width="19" height="19" viewBox="0 0 19 19" fill="none" xmlns="http://www.w3.org/2000/svg">
<path d="M15.043 9.5L3.95963 9.5" stroke="#25387F" stroke-linecap="round" stroke-linejoin="round"/>
<path d="M9.5 15.0417L3.95833 9.50008L9.5 3.95842" stroke="#25387F" stroke-linecap="round" stroke-linejoin="round"/>
<path d="M10.8472 15.9953L10.0847 16.7578C9.76182 17.0807 9.23972 17.0807 8.92028 16.7578L2.24293 10.0839C1.92005 9.76105 1.92005 9.23895 2.24293 8.91951L8.92028 2.24216C9.24316 1.91928 9.76525 1.91928 10.0847 2.24216L10.8472 3.00469C11.1735 3.331 11.1667 3.86341 10.8335 4.18285L6.69449 8.12606L16.5663 8.12606C17.0231 8.12606 17.3906 8.49359 17.3906 8.95042L17.3906 10.0496C17.3906 10.5064 17.0231 10.8739 16.5663 10.8739L6.69449 10.8739L10.8335 14.8171C11.1701 15.1366 11.177 15.669 10.8472 15.9953Z" fill="#025DA3"/>
</svg>
