<svg xmlns="http://www.w3.org/2000/svg" width="71" height="96" focusable="false" aria-hidden="true"><defs></defs><g fill="none" fill-rule="evenodd"><g transform="translate(21 94)" fill="none"><mask id="logo-dark_svg__b_zdxpoq1as" fill="#fff"><path id="logo-dark_svg__a_zdxpoq1as" d="M.076.044H26.97v1.949H.076z"></path></mask><path fill="#e15e36" mask="url(#logo-dark_svg__b_zdxpoq1as)" d="M.076 2h26.132l.761-1.956H.076V2"></path></g><path d="M26.759 65.384a5.684 5.684 0 00-1.062-.296A6.573 6.573 0 0024.57 65c-1.3 0-2.398.448-3.266 1.336-.866.887-1.304 2.015-1.304 3.355 0 1.228.415 2.266 1.234 3.083.819.813 1.86 1.226 3.087 1.226.502 0 .949-.048 1.317-.145.368-.091.8-.268 1.282-.52l.075-.038v-1.79s.052-.061-.187.181c-.24.243-.824.59-1.208.736a3.704 3.704 0 01-1.33.227c-.724 0-1.335-.3-1.82-.887-.488-.597-.737-1.359-.737-2.268 0-.9.263-1.661.783-2.257.51-.59 1.164-.89 1.936-.89.394 0 .78.065 1.157.19.37.12.713.301 1.015.53l.262.186-.003-.298v-1.529l-.104-.044M32 65l-.053.215c-.09.388-.157.764-.193 1.118a13.72 13.72 0 00-.055 1.345v3.644c0 .528.018.978.055 1.345.036.354.102.73.193 1.118L32 74h-2l.053-.215c.09-.388.156-.764.193-1.118.037-.367.055-.817.055-1.345v-3.644c0-.528-.018-.978-.055-1.345a8.972 8.972 0 00-.193-1.118L30 65h2M38.97 69.5v1.822c0 .528.019.978.06 1.345.04.354.113.73.214 1.118l.06.215h-2.225l.059-.215c.1-.388.173-.764.214-1.118.041-.367.06-.817.06-1.345v-3.644l-.003-1.393h-.133c-.44 0-.869.04-1.142.102-.29.068-.589.187-.885.353l-.249.123V65h7l-.05.114c-.373.838-.373.838-.369.834l-.325.729-.078.135-.131-.072a3.389 3.389 0 00-.89-.353 4.666 4.666 0 00-1.053-.102h-.134V69.5M47.004 68.407l.14-.274c.826-1.622 1.018-2.005 1.043-2.05.079-.156.142-.321.181-.493a1.37 1.37 0 00.048-.306l-.02-.284H51l-.325.297c-.148.13-.328.382-.556.732-.231.354-.524.898-.88 1.606l-1.456 2.891v.796c0 .542.021.998.063 1.364.041.357.114.731.216 1.099l.063.215h-2.25l.063-.215c.102-.368.175-.742.216-1.099.042-.366.063-.822.063-1.364v-.796l-1.456-2.891c-.356-.708-.649-1.252-.88-1.606-.228-.35-.408-.602-.556-.732L43 65h2.605l-.021.284c0 .072.016.18.048.306.039.172.102.337.18.493.026.045.219.428 1.044 2.05l.14.274h.008M34.861 78.01c-.213.232-.482.35-.8.35a1.12 1.12 0 01-.885-.417c-.239-.28-.359-.636-.359-1.062 0-.356.108-.655.323-.89.212-.231.482-.348.8-.348.353 0 .651.14.886.414.237.279.358.637.358 1.063 0 .355-.109.656-.323.89zm.589-2.428c-.368-.386-.836-.582-1.39-.582-.586 0-1.081.19-1.47.562a1.88 1.88 0 00-.59 1.41c0 .578.185 1.065.552 1.449.367.384.834.579 1.388.579.586 0 1.082-.19 1.471-.562.39-.373.589-.848.589-1.41 0-.577-.184-1.063-.55-1.446zM37.78 78.997l-.022-.096a4.607 4.607 0 01-.076-.494 7.926 7.926 0 01-.02-.601v-.563c.122.006.226.017.304.045.067.02.132.051.193.093l.129.095.026-.066.31-.738h-.961V75.57h.046c.147 0 .546.016.646.045.102.029.207.084.31.155l.048.033.029-.059c0-.004.113-.324.113-.324L39 75h-2l.019.098c.039.17.064.335.077.495.013.162.022.362.022.596v1.62c0 .233-.006.436-.02.601a4.653 4.653 0 01-.076.494L37 79l.78-.003M32.665 89.917a9.143 9.143 0 01-.077-1.193v-4.02c0-.535.024-.983.065-1.336.038-.337.108-.7.216-1.08l.078-.288h-2.256l.077.287c.106.374.179.741.22 1.094.041.357.062.803.062 1.324v3.624c-.25-.36-2.76-4.002-2.76-4.002a15.648 15.648 0 01-1.41-2.21L26.819 82H25l.1.22c.003.01.368.836.407 1.16.04.364.058.807.058 1.325v3.591c0 .53-.018.982-.06 1.343-.04.343-.113.705-.215 1.076l-.026.083-.057.202h2.26l-.08-.285a6.65 6.65 0 01-.216-1.089c-.037-.3-.054-.657-.06-1.07 0 0 .024-2.199.034-2.915l2.691 3.645c.236.31.453.628.642.95.235.403.267.54.272.572l.017.124.008.068H33l-.16-.323c-.039-.078-.111-.278-.175-.76M20.437 88.77a2.35 2.35 0 01-1.802.788c-.794 0-1.464-.317-1.99-.936-.536-.628-.807-1.432-.807-2.39 0-.802.244-1.474.728-2.001.475-.522 1.083-.784 1.799-.784.793 0 1.465.313 1.993.93.534.628.804 1.434.804 2.394 0 .799-.243 1.474-.725 2zm1.324-5.462C20.935 82.44 19.88 82 18.635 82c-1.319 0-2.433.427-3.308 1.264-.881.844-1.327 1.912-1.327 3.173 0 1.3.417 2.396 1.241 3.26.826.865 1.877 1.303 3.124 1.303 1.318 0 2.435-.426 3.31-1.265.878-.84 1.325-1.908 1.325-3.172 0-1.297-.415-2.392-1.24-3.255zM64.665 89.917a9.126 9.126 0 01-.077-1.193v-4.02c0-.535.024-.983.065-1.336.038-.337.108-.7.216-1.08l.078-.288h-2.256l.077.287c.106.374.179.741.22 1.094.041.357.062.803.062 1.324v3.624c-.25-.36-2.76-4.002-2.76-4.002a15.686 15.686 0 01-1.41-2.21L58.819 82H57l.1.22c.003.01.368.836.407 1.16.04.364.058.807.058 1.325v3.591c0 .53-.018.982-.06 1.343-.04.343-.113.705-.215 1.076l-.026.083-.057.202h2.26l-.08-.285a6.64 6.64 0 01-.216-1.089c-.037-.3-.054-.657-.059-1.07 0 0 .023-2.199.033-2.915l2.691 3.645c.236.31.453.628.642.95.235.403.267.54.272.572l.017.124.008.068H65l-.16-.323c-.039-.078-.111-.278-.175-.76M51.436 88.77c-.478.524-1.086.788-1.806.788-.79 0-1.46-.317-1.985-.936-.536-.628-.806-1.432-.806-2.39 0-.802.244-1.474.724-2.001a2.356 2.356 0 011.799-.784c.797 0 1.467.313 1.99.93.54.628.808 1.434.808 2.394 0 .799-.244 1.471-.724 2zM49.63 82c-1.312 0-2.425.427-3.305 1.264-.878.843-1.325 1.912-1.325 3.173 0 1.304.418 2.4 1.244 3.26.824.865 1.875 1.303 3.117 1.303 1.32 0 2.435-.426 3.315-1.265.878-.84 1.324-1.91 1.324-3.172 0-1.297-.418-2.392-1.244-3.255C51.93 82.44 50.879 82 49.63 82zM37.112 83.37a11.552 11.552 0 011.353.011c.833.1 1.637.596 2.094 1.295.463.71.637 1.564.521 2.546-.117.963-.414 1.553-.959 1.9-.873.552-1.838.542-2.86.53h-.138c-.01-.248-.022-.927-.022-2.71l.011-3.571zm-1.804 6.266c-.04.347-.116.711-.22 1.078l-.084.285h2.11c1.185.003 2.976.017 4.11-.698.979-.619 1.563-1.65 1.733-3.068.026-.244.043-.471.043-.695 0-1.041-.302-1.976-.896-2.785-.727-.989-1.735-1.567-2.991-1.717l-.428-.034L37.294 82H35l.087.285c.113.4.186.754.221 1.08.044.344.066.79.066 1.328v3.6c0 .54-.022.991-.066 1.343zM11.92 91H6.026l.065-.211c.11-.381.19-.75.234-1.098.045-.361.066-.803.066-1.322v-3.664c0-.528-.024-.973-.067-1.326a7.019 7.019 0 00-.235-1.092L6 82h2.61l-.088.287c-.112.38-.191.746-.235 1.092a11.3 11.3 0 00-.067 1.326v4.894h-.002.384c.578.008 1.295.005 2.005-.154 1.63-.366 2.393-.93 2.393-.93l-.093.211c-.542 1.27-.542 1.267-.542 1.267L11.92 91M29.332 58.56a.96.96 0 00-.152-.495 1.323 1.323 0 00-.444-.435 1.49 1.49 0 00-.413-.185 2.179 2.179 0 00-.519-.069v2.26c.116-.003.232-.011.35-.026.119-.014.225-.036.318-.065.104-.032.205-.076.305-.133.1-.056.192-.126.278-.21a.962.962 0 00.202-.288.847.847 0 00.075-.355zm-2.182.657V57.78c0-.298-.05-.558-.15-.78h.79c.255 0 .473.01.653.032.18.02.346.064.498.13a2.055 2.055 0 01.74.55c.1.12.179.247.235.385a1.158 1.158 0 01.014.825c-.047.128-.11.245-.19.352a1.717 1.717 0 01-.577.5 2.034 2.034 0 01-.932.225L27 59.997c.1-.221.15-.481.15-.78zM31 60c.105-.222.157-.482.157-.78v-1.44c0-.298-.052-.558-.157-.78h1a1.812 1.812 0 00-.157.78v1.44c0 .298.052.558.157.78h-1M34.196 58.408a1.42 1.42 0 00.296-.11c.09-.045.162-.1.216-.164a.322.322 0 00.081-.214.356.356 0 00-.076-.22.64.64 0 00-.21-.173 1.3 1.3 0 00-.3-.114 1.535 1.535 0 00-.335-.045v1.1a2.57 2.57 0 00.328-.06zm-.328.429v.356c0 .295.054.552.161.772H33a1.73 1.73 0 00.162-.772v-1.421c0-.295-.054-.553-.162-.772h1.123c.192 0 .372.024.539.07.166.048.31.112.43.194a.948.948 0 01.28.282.62.62 0 01.098.331.67.67 0 01-.23.513c-.153.141-.353.247-.598.318.085.099.187.207.307.325.119.117.248.238.387.362a21.34 21.34 0 00.664.57 1.55 1.55 0 01-.118.01l-.176.011a6.416 6.416 0 01-.333.014c-.082 0-.253-.103-.513-.307-.26-.205-.577-.49-.953-.856h-.04z" fill="#fff"></path><path d="M36 60a1.81 1.81 0 00.157-.78v-1.44c0-.298-.052-.558-.157-.78h1a1.812 1.812 0 00-.157.78v1.44c0 .298.052.558.157.78h-1M40.307 59.197c0-.162-.007-.303-.02-.42a1.22 1.22 0 00-.09-.34H41a1.224 1.224 0 00-.09.34c-.013.117-.02.258-.02.42v.425c0 .075.002.123.004.146a.331.331 0 00.029.09 2.403 2.403 0 01-.48.11 3.902 3.902 0 01-.493.032c-.34 0-.636-.043-.888-.13a1.724 1.724 0 01-.61-.341 1.357 1.357 0 01-.343-.467 1.295 1.295 0 01.023-1.095c.087-.187.212-.352.373-.498.16-.145.35-.26.57-.344.218-.083.456-.125.713-.125a7.798 7.798 0 01.551.035c.1.01.193.023.278.038.085.016.152.033.2.05v.653a1.583 1.583 0 00-.235-.146 2.22 2.22 0 00-.6-.21 1.589 1.589 0 00-.304-.03c-.335 0-.599.1-.792.297-.194.199-.29.46-.29.784 0 .137.03.272.09.407.059.136.145.258.259.369.113.11.25.198.41.263.162.064.34.096.534.096.11 0 .196-.005.256-.015a.73.73 0 00.162-.047v-.347M43.844 60H42c.086-.222.129-.482.129-.78v-1.44c0-.298-.043-.558-.129-.78h1.902l-.246.523a.677.677 0 00-.244-.1 1.45 1.45 0 00-.338-.038h-.383v.911h1.02l-.227.487a.626.626 0 00-.197-.075 1.161 1.161 0 00-.256-.028h-.34v.936h.414c.17 0 .315-.015.436-.044a3.21 3.21 0 00.459-.159l-.156.587M64.847 57.61c-2.122 1.297-6.65-.91-9.602-2.665-3.805-2.083-6.877-3.213-8.828-3.213.48.394.82 1.05.58 1.816-.27.8-1.11 1.224-1.877 1.33-.634-1.111-2.057-1.598-2.956-2.416 0 0-1.222-1.035 2.997-1.432 4.76-.44 10.81 4.106 14.761 5.656.67.262 5.404 2.523 6.013-1.806.02-.145.072-.072.064-.033-.107 1.607-.522 2.377-1.152 2.763M6.153 57.61c2.122 1.297 6.65-.91 9.602-2.665 3.805-2.083 6.877-3.213 8.828-3.213-.48.394-.82 1.05-.58 1.816.27.8 1.11 1.224 1.877 1.33.634-1.111 2.057-1.598 2.956-2.416 0 0 1.221-1.035-2.997-1.432-4.76-.44-10.811 4.106-14.761 5.656-.67.262-5.404 2.523-6.013-1.806-.02-.145-.072-.072-.064-.033.107 1.607.522 2.377 1.152 2.763" fill="#fff"></path><path d="M27.334 60.105c-1.374-.416-2-1.304-2.282-2.075-.026-.043-.064-.04-.048.013C25.332 59.269 26.09 61 28.163 61h16.675c2.074 0 2.832-1.731 3.159-2.957.014-.053-.022-.056-.043-.013-.285.77-.912 1.659-2.29 2.075-.703.196-3.268.15-4 .15h-10.33c-.728 0-3.294.046-4-.15M9.382 55.323a.989.989 0 00-.224-.447 1.301 1.301 0 00-.477-.35 1.389 1.389 0 00-.406-.118 1.922 1.922 0 00-.481.005l.391 2.136c.104-.018.208-.042.313-.072a1.35 1.35 0 00.53-.272c.08-.067.152-.146.214-.236a.879.879 0 00.133-.301.827.827 0 00.007-.345zm-1.863.92l-.248-1.358A1.918 1.918 0 007 54.168l.717-.108c.23-.035.428-.055.595-.06.168-.004.325.014.474.056a1.944 1.944 0 01.766.418c.112.099.204.209.279.33a1.13 1.13 0 01.155.78c-.02.126-.057.246-.11.358a1.527 1.527 0 01-.793.764 1.78 1.78 0 01-.448.13L7.519 57a1.86 1.86 0 000-.757zM11.841 55.491a.973.973 0 00.328-.168.857.857 0 00.224-.27.914.914 0 00.1-.355 1.162 1.162 0 00-.041-.41 1.247 1.247 0 00-.217-.425 1.074 1.074 0 00-.351-.308.916.916 0 00-.352-.108.914.914 0 00-.355.033 1 1 0 00-.332.17.9.9 0 00-.347.638c-.013.132 0 .272.041.42.041.149.106.283.192.4.087.117.19.211.31.283.12.071.25.116.387.135a.972.972 0 00.413-.035zm1.096-1.448c.066.24.08.46.042.66-.037.2-.116.399-.234.596a1.26 1.26 0 01-.37.388 1.86 1.86 0 01-.522.247c-.4.12-.772.076-1.119-.13a1.496 1.496 0 01-.418-.363 1.477 1.477 0 01-.26-.533 1.454 1.454 0 01.07-.996 1.44 1.44 0 01.397-.538c.17-.141.362-.244.578-.309a1.495 1.495 0 011.122.101 1.6 1.6 0 01.449.363c.122.144.21.315.265.514zM16.19 53.302l-1.972-1.152.497.923.037.06c.014.029.024.05.033.063.125.207.268.374.428.5L14.51 54a1.812 1.812 0 00-.235-.738l-.746-1.384a1 1 0 00-.243-.288A1.283 1.283 0 0013 51.43l.636-.274 2.078 1.21.061-2.133.54-.232a.961.961 0 00.077.269c.043.106.099.214.166.324.007.013.02.032.038.056l.034.054.8 1.199c.167.249.357.446.57.593l-.84.362a1.673 1.673 0 00-.27-.65l-.036-.057-.605-.91-.06 2.062M19.263 52a2.063 2.063 0 00-.213-.744l-.605-1.271a2.095 2.095 0 00-.445-.636l.737-.349c.017.232.087.48.213.745l.606 1.27c.125.265.274.477.444.635l-.737.35M20.792 51.418c.066.123.143.236.23.338l-.718.244a2.262 2.262 0 00-.143-.844l-.572-1.64a.589.589 0 00-.245-.307L19 49.014l.793-.27 2.35 1.56-.456-1.308a2.928 2.928 0 00-.179-.415 1.922 1.922 0 00-.231-.339l.715-.242c-.005.135.005.27.03.407.024.137.063.281.117.436l.525 1.506c.113.322.224.567.336.738l-.58.196a.41.41 0 00-.063-.065 4.763 4.763 0 00-.414-.317l-1.767-1.15.437 1.252c.053.155.114.292.18.415M25.934 50.763L24.35 51c.048-.215.054-.46.02-.734l-.168-1.321a2.103 2.103 0 00-.202-.7L25.634 48l-.15.512a.565.565 0 00-.221-.061 1.203 1.203 0 00-.295.008l-.33.05.107.837.876-.13-.138.476a.521.521 0 00-.178-.044.97.97 0 00-.223.007l-.292.044.109.86.356-.054a1.55 1.55 0 00.369-.096c.1-.042.226-.11.376-.205l-.066.56M48.772 50.888c-.03.131-.045.263-.045.393L48 51.02c.181-.184.332-.423.453-.715l.648-1.57a.536.536 0 00.013-.378L48.975 48l.802.289.8 2.603.518-1.253c.06-.147.106-.286.136-.418a1.7 1.7 0 00.046-.393l.723.26a1.853 1.853 0 00-.249.32c-.072.116-.139.248-.2.396l-.595 1.441c-.127.308-.204.56-.23.755l-.586-.21a.313.313 0 00-.007-.088c-.007-.044-.018-.096-.03-.155a4.01 4.01 0 00-.082-.335l-.617-1.94-.495 1.198a2.748 2.748 0 00-.137.418M54.203 52.51c.122.047.242.07.36.068a.802.802 0 00.62-.299c.084-.097.151-.215.2-.353.052-.143.075-.3.07-.474a1.136 1.136 0 00-.108-.464.987.987 0 00-.892-.567.848.848 0 00-.645.295 1.118 1.118 0 00-.207.362 1.204 1.204 0 00-.073.438 1.118 1.118 0 00.322.766c.1.1.218.176.353.228zm1.712-.48a1.398 1.398 0 01-.343.554 1.69 1.69 0 01-.53.332 1.201 1.201 0 01-.52.082 1.849 1.849 0 01-.563-.127 1.42 1.42 0 01-.827-.796 1.585 1.585 0 01-.13-.549c-.01-.186.022-.382.095-.587.12-.333.329-.584.626-.754.201-.115.41-.176.628-.184.217-.008.432.029.643.11.19.075.36.18.508.319.147.139.26.291.339.457.087.188.138.377.154.568.017.19-.01.382-.08.575zM57.224 53.554c-.168-.217-.274-.412-.316-.584a.678.678 0 01.064-.496.85.85 0 01.561-.445c.25-.063.522-.022.814.123.09.044.196.11.32.198.123.087.234.175.333.264l-.266.498a1.418 1.418 0 00-.228-.341 1.545 1.545 0 00-.166-.163.902.902 0 00-.175-.117c-.145-.072-.272-.095-.381-.07a.34.34 0 00-.238.174c-.057.108-.067.21-.028.301.039.093.123.22.252.381.042.052.074.094.098.126.079.1.145.192.197.274.052.083.093.169.123.258a.73.73 0 01-.058.582.862.862 0 01-.589.456c-.263.061-.544.018-.843-.131a3.439 3.439 0 01-.39-.228A1.283 1.283 0 0156 54.34l.256-.48c.032.052.072.109.12.17.047.062.1.124.158.187.058.062.122.12.189.174.068.053.135.096.203.13.137.068.26.085.371.05a.407.407 0 00.244-.2c.06-.112.068-.215.027-.313a2.113 2.113 0 00-.268-.407 2.46 2.46 0 01-.076-.097" fill="#fff"></path><path d="M23.004 25v11.197-.002c-.006.486-.023 2.813.106 3.78C24.48 50.314 34.5 54 34.5 54s10.019-3.687 11.39-14.024c.129-.968.112-3.295.105-3.78V25h-22.99" fill="#fffffe"></path><path d="M46.839 32.845c-.027.195-.058.22-.068-.004v-5.658a.908.908 0 00.458-.183l-.39 5.845M24.161 32.845c.027.195.058.22.068-.004v-5.658a.908.908 0 01-.458-.183l.39 5.845" fill="#fff"></path><path d="M45.913 39.927c.104-1.033.089-3.046.082-3.51h-9.652V26.314c-.59.115-.923-.121-1.152-.314-.054.167-.42.487-.872.709a1.56 1.56 0 01-1.348.268 2.059 2.059 0 01-.373-.126v9.566h-9.593c-.007.484-.023 2.758.105 3.705h9.488v11.985c.602.317 1.234.617 1.912.893a22.329 22.329 0 001.833-.85V40.123h9.547c.008-.06.016-.126.023-.196" fill="#e15e36"></path><path fill="#fff" d="M46.94 25.816H23.059l-.03.185-.028.183h24l-.06-.368"></path><path d="M29.897 32.896l-.108-5.151-.006-.309L29.5 27l-.288.436-.004.309-.106 5.146c-.252-.016-.47-.066-.649-.233a.293.293 0 00-.37-.007c-.106.085-.111.227-.012.315.315.282.674.358 1.037.373a.354.354 0 00-.046.17c0 .097.043.183.113.251a.316.316 0 00-.07.193c0 .087.044.164.103.227a.261.261 0 00-.06.171c0 .084.035.159.091.21a.258.258 0 00-.056.162c0 .153.147.277.329.277.176 0 .324-.124.324-.277a.245.245 0 00-.06-.162.273.273 0 00.098-.21.289.289 0 00-.062-.171.318.318 0 00.098-.227.315.315 0 00-.066-.193.364.364 0 00.112-.252.406.406 0 00-.04-.164c.24.018.454.07.629.233a.297.297 0 00.369.01.207.207 0 00.02-.32c-.317-.284-.68-.353-1.037-.371" fill="#e15e36"></path><path d="M45.97 40.001c-.046-.012-.057.09-.057.09C44.4 49.408 34.5 52.705 34.5 52.705s-9.9-3.297-11.413-12.616c0 0-.011-.101-.057-.089-.038.01-.03.081-.028.094v.003l.02.146C24.404 50.158 34.5 54 34.5 54s10.096-3.842 11.478-13.756l.02-.146v-.003c.002-.013.01-.083-.029-.094zM2.45 16.178c.867 1.464.63 3.408-.16 4.702-.128.2-.36.136-.27-.088.623-2.262.34-3.98.19-4.648-.04-.185.082-.21.24.034M2.239 23.114c.788 1.122.923 3.483.593 4.736-.056.195-.279.206-.25-.002.079-2.067-.368-4.141-.568-4.697-.061-.161.086-.222.225-.037M3.073 29.2c-.155-.089-.052-.242.209-.19 1.517.346 3.276 2.465 3.706 3.724.062.199-.121.378-.266.18-1.194-1.74-3.097-3.403-3.65-3.714M3.529 22.928c-.223-.094-.57-.413-3.376-.788-.194-.023-.213-.132-.002-.136 1.81-.04 2.955.245 3.686.645.276.144.22.504-.308.279" fill="#fff"></path><path d="M8.074 26.692c-.323.055-.973.163-1.338.253-.835-1.786-1.588-3.404-1.97-6.789-.027-.23-.178-.19-.178.016.004 3.527.545 5.14 1.25 7.03-1.022.319-2.161.755-3.777 1.532-.11.05-.065.196.08.154a42.78 42.78 0 013.996-.958c1.316 2.99 2.981 4.016 3.603 4.448.334.231.693.376.976.505.497.209 1.034.112 1.199-.085.21-.293.015-.585-.42-.827-.711-.398-2.685-1.174-4.354-4.22a21.887 21.887 0 011.798-.176c.486-.03.655-.345.481-.657-.138-.245-.426-.385-1.346-.226M8.716 33.001c.27-.019.407.215.139.265-.128.03-.574.013-1.758.71-.08.047-.129.022-.074-.05.472-.594 1.227-.867 1.693-.925M1.395 31.679c1.018 1.017 1.697.865 2.183.492-.13.858-1.011.837-1.011.837s-.07 0-.148.007c.97.328 2.375 1.02 3.299 2.469.155.248.181.273.282.516a2.232 2.232 0 00-1.146-.491c-.563-1.148-1.757-1.814-2.635-2.313.49.677.258 1.045.203 1.545.007-.306-.484-.78-.484-.78s-.479-.464-.673-1.06C.852 31.342 0 31.093 0 31.093s.38-.436 1.395.587" fill="#fff"></path><path d="M1.304 11.896c-.17-.376-.38-.233-.276.052 2.5 6.624 7.776 12.515 7.776 12.515 1.054 1.306 2.885 2.964.876 3.455-.585.14-1.93 1.353 2.188 3.9.616.381 1.28.132 1.103-.447-.089-.29-1.316-1.017-1.773-1.392-.767-.634-.932-.83.1-1.242.425-.17 1.865-1.176.98-2.138-5.12-5.573-3.003-15.398-3.003-15.398.05-.25-.104-.279-.175-.016 0 0-1.414 4.966-3.06 6.463.344.767 1.3 2.54 2.296 4.777-1.068-1.382-3.72-3.947-7.032-10.53M24.425 25.34c-.368.084-.57.277-.57.277l-.884.845c-.303.279-1.527 1.389-2.126 1.43-.082.006-.217-.088-.29-.129-.048-.027-2.078-1.318-3.416-1.82-.128-.052-.215-.015-.042.066 3.601 1.765 4.384 4.084 4.364 4.527-.003.054.012.1.072.137.228.126.469.25.595.318.06.024.086-.003.086-.041.18-1.256-.46-1.561-.46-1.832 0-.27 1.78-2.062 1.814-2.003.366.612.64.77 1.28.887 0 0-.253-.185-.285-.311.104-.024.254-.077.107-.357-.193-.37-.4-.678.595-1.039 2.56-.553 1.578.774 2.29.585.133.154.071.357.071.357.54-.54.198-1.097.198-1.097s.406-.08.422.253c.032.652.436.487.436.487.083.136.069.33.069.33.34-.559.241-.969.216-1.185a.728.728 0 00-.218-.383c-.29-.265-.808-1.106-4.324-.303" fill="#fff"></path><path d="M4.145 39.536c-.703-.203-1.145-.8-1.145-1.55 0-.916.765-1.658 1.706-1.658.15 0 .293.024.432.061 0-.001-.002-.005-.005-.006.91.215 1.225.898 1.298 1.092.452 1.205-.448 2.937-.91 3.65-.38.587-.79 1.662.016 2.024 2.285.739 2.773-2.006 3.057-3.096.403-1.668 1.006-2.664 2.492-3.88.128-.105.236-.191.343-.273a5.667 5.667 0 00-.591-.332c-1.574-.775-2.03-.701-2.138-.69-.043.003-.044-.02-.015-.07.178-.3.968-.3 2.043-.029 1.974.615 2.04.44 2.94-.405.148-.135.31-.286.504-.475 1.122-1.212.36-3.3.36-3.3-.283-.773-.969-2.006-.974-2.002l-.396-.765c-1.013-1.921-1.966-3.742-1.734-4.822.173-.618.47-.88.877-1.245-.024-.313-.287-.562-.404-.658-.045-.035-.047-.056-.01-.087.28-.326.24-.691-.092-1.066-.038-.042-.048-.065.017-.105.348-.33.4-.59.188-1.058-.016-.036-.01-.05.035-.071.278-.144.06-.738.954-1.677.088-.09.122-.025.101.066-.096.722.461 1.123.655 1.62.109-.183-.063-.424.237-.742.084-.078.11-.062.095.052-.09.935.953 1.146.665 2.398 0 0 .604-.327 2.38-.498.322-.032.72.05.62.39-.017.059-.162.149-.366.19-.38.056-1.157.245-1.157.245-.181.042-.408.118-.567.166-.449.135-.169.251-.169.251.595.223.714.26.93.4.013.012.108.069.226.078.23.019.452-.05.46-.287.01-.137 0-.17-.03-.253-.074-.166.759-.37 1.072-.427.635-.115 1.59-.155 2.387-.073.177.005 1.154.105 1.277.488-.312-.304-.969-.256-1.113-.205-.136 1.134-.401 1.258-1.52 1.472l-2.95.456c-.699.088-.649.742-.229.707l1.023-.092.41-.037.118-.009c.6-.333 1.393-.66 2.411-.31.26.07.704-.008 1.161-.313-.188-.168-.402-.368-.449-.554 0 0 1.09.498 1.514-.328.042.815-.35 1.34-1.366 1.694.022-.206.073-.38.23-.512a1.798 1.798 0 01-.6.25c-.436.097-.833-.02-.958-.05l.002.036c.026.228.123.852.493 1.115.037.019.032.043-.01.046-.798.064-1.197-.237-1.197-.237s-.008.584.284.838c.034.025.02.048-.007.048-1.78.008-2.006-.623-4.7-.715-.036-.003-.051-.017-.062-.037-.173-.364-.514-.854-.925-1.027-.02-.008-.025-.02-.004-.039.438-.461.384-1.28.374-1.56-.006-.063-.035-.054-.055-.015-.314.632-.667 1.29-1.632 1.482-.038.003-.038.02-.013.029 1.136.462 1.535 1.556 1.604 1.903.388-.125.694-.12 1.018-.045.035.012.03.025.002.039-.326.16-.54.28-.624.689-.07.364.023.698.452 1.043l10.58 7.372c.468.351.581 1.095.8 1.803.145.637.548 3.468-1.547 3.851-.252.038-.811.163-1.213-.334 0 0 .196.057.359-.019 0 0-.12-.303.404-.316.386-.01.319-.417.319-.417s-.737.248-1.05-.301c0 0 .19.073.378-.006-.062-.829 1.574.396 1.213-1.964-.308-.88-.906-.72-1.263-.602-.34.113-.452-.09-.473-.2-.148.025-.338.21-.338.21.1-.62.66-.846 1.508-1.079l-.545-.314-1.947-.877s-1.277 2.47-3.12 4.188c1.266 0 1.875.112 2.346.32 0 0 .222.069.443.373.25.347.465.922.07 1.842-.295.686-.922 1.553-2.117 2.64-1.088.976-1.742 2.334.288 3.13.59.23 1.174.289 1.445.381 0 0 .989-.278 1.621-.583.558-.27 1.318-.209 1.85.17.114.108.157.153.19.228.165.299.207.508.02.853 0 0-.174-.5-.409-.426-.52.405-.299-.329-.98-.072 0 0 .535.264.201.933 0 0-.14-.462-.323-.384-.667.283-.156-.354-1.678.076l-1.927.786a8.576 8.576 0 00-1.045.52c-.144-.467.615-.979.701-1.036 0 0-1.211-1.335-2.374-1.892-.26-.125-.507-.225-.681-.36-.266-.26-.293-.605.161-1.153.1-.093 2.502-2.404 3.288-3.405.784-1.005.795-1.587.096-1.768l-2.752-.21c-.02.008-1.081-.06-1.652-.101-.13-.03-.098-.118-.007-.14.915-.355 3.452-1.607 5.395-5.138-.885-.293-1.796-.036-2.211.116a.437.437 0 01-.38-.002l-1.161-.749c.06.204.27.67.41.952.083.18.006.276-.033.335-.635 1.004-1.35 2.028-2.453 3.008a2.297 2.297 0 00-.306.323c-.494.61-.601 1.57.317 2.897l.047.071c.145.236.403.786.29 1.595-.028.19-.077.398-.148.614a8.51 8.51 0 01-.101.331c-.481 1.472-2.458 3.501-5.309 5.089-.14.077-.278.15-.417.228l1.24 2.93s.73-.16 1.362-.504c.453-.246 1.284-.39 1.845-.055.123.098.124.106.209.212.188.34.168.66-.002.878 0 0-.222-.596-.35-.422-.485.445-.287-.172-.825.06 0 0 .398.436.037.905 0 0-.112-.423-.314-.335-.641.336-.158-.33-1.64.22 0 0-1.687.811-2.91.855.126-.393.961-.9.961-.9-.087-1.737-.647-3.455-1.117-4.438-.546-1.137 1.82-.863 2.07-2.094l.246-1.64c.343-2.04.41-2.662.743-3.637.276-.812 1.112-2.56 1.07-2.831-.017-.055-.084-.022-.144.021-.38.358-1.934 2.078-2.14 6.069 0 0 .003.068-.176.229-1.984 1.776-4.477 1.46-5.31.57-1.612-1.72-.357-3.596.42-4.353.778-.756.984-1.371.858-1.997-.052-.255-.104-.323-.104-.323a.649.649 0 00-.555-.311.643.643 0 00-.653.633c0 .35.29.633.653.633 0 0-.024.432-.572.907M68.551 16.178c-.868 1.464-.63 3.408.16 4.702.127.2.359.136.269-.088-.623-2.262-.34-3.98-.19-4.648.04-.185-.082-.21-.239.034M68.761 23.114c-.788 1.122-.923 3.483-.593 4.736.056.195.279.206.25-.002-.079-2.067.368-4.141.568-4.697.061-.161-.086-.222-.225-.037M67.927 29.2c.155-.089.052-.242-.209-.19-1.517.346-3.276 2.465-3.706 3.724-.062.199.121.378.266.18 1.194-1.74 3.097-3.403 3.65-3.714M67.471 22.928c.223-.094.57-.413 3.376-.788.194-.023.213-.132.002-.136-1.81-.04-2.955.245-3.686.645-.276.144-.22.504.308.279" fill="#fff"></path><path d="M62.926 26.692c.323.055.973.163 1.338.253.835-1.786 1.588-3.404 1.97-6.789.027-.23.178-.19.178.016-.004 3.527-.545 5.14-1.25 7.03 1.022.319 2.161.755 3.777 1.532.11.05.065.196-.08.154a42.78 42.78 0 00-3.996-.958c-1.316 2.99-2.981 4.016-3.603 4.448-.334.231-.693.376-.976.505-.497.209-1.034.112-1.199-.085-.21-.293-.015-.585.42-.827.711-.398 2.685-1.174 4.354-4.22a21.887 21.887 0 00-1.798-.176c-.486-.03-.655-.345-.481-.657.138-.245.426-.385 1.346-.226M62.284 33.001c-.27-.019-.407.215-.139.265.128.03.574.013 1.758.71.08.047.129.022.074-.05-.472-.594-1.227-.867-1.693-.925M69.605 31.679c-1.018 1.017-1.697.865-2.183.492.13.858 1.011.837 1.011.837s.07 0 .148.007c-.97.328-2.374 1.02-3.299 2.469-.155.248-.181.273-.282.516.268-.224.639-.42 1.146-.491.563-1.148 1.757-1.814 2.635-2.313-.49.677-.258 1.045-.203 1.545-.007-.306.484-.78.484-.78s.479-.464.673-1.06c.413-1.56 1.265-1.809 1.265-1.809s-.38-.436-1.395.587" fill="#fff"></path><path d="M69.696 11.896c.17-.376.38-.233.276.052-2.5 6.624-7.776 12.515-7.776 12.515-1.054 1.306-2.885 2.964-.876 3.455.585.14 1.93 1.353-2.188 3.9-.616.381-1.28.132-1.103-.447.089-.29 1.316-1.017 1.773-1.392.767-.634.932-.83-.1-1.242-.425-.17-1.865-1.176-.98-2.138 5.12-5.573 3.003-15.398 3.003-15.398-.05-.25.104-.279.175-.016 0 0 1.414 4.966 3.06 6.463-.344.767-1.3 2.54-2.296 4.777 1.068-1.382 3.72-3.947 7.032-10.53M46.575 25.34c.368.084.57.277.57.277l.884.845c.303.279 1.527 1.389 2.126 1.43.082.006.217-.088.29-.129.048-.027 2.078-1.318 3.416-1.82.128-.052.215-.015.042.066-3.601 1.765-4.384 4.084-4.364 4.527a.135.135 0 01-.072.137c-.228.126-.469.25-.595.318-.06.024-.086-.003-.086-.041-.18-1.256.46-1.561.46-1.832 0-.27-1.779-2.062-1.814-2.003-.366.612-.64.77-1.28.887 0 0 .253-.185.286-.311-.105-.024-.254-.077-.108-.357.193-.37.4-.678-.595-1.039-2.56-.553-1.578.774-2.29.585-.133.154-.071.357-.071.357-.54-.54-.198-1.097-.198-1.097s-.406-.08-.422.253c-.032.652-.436.487-.436.487-.083.136-.069.33-.069.33-.34-.559-.241-.969-.216-1.185.003-.082.11-.3.218-.383.29-.265.808-1.106 4.324-.303" fill="#fff"></path><path d="M66.855 39.536c.703-.203 1.145-.8 1.145-1.55 0-.916-.765-1.658-1.706-1.658-.15 0-.293.024-.432.061 0-.001.002-.005.005-.006a1.794 1.794 0 00-1.298 1.092c-.452 1.205.448 2.937.91 3.65.38.587.79 1.662-.016 2.024-2.285.739-2.773-2.006-3.057-3.096-.403-1.668-1.006-2.664-2.492-3.88a11.148 11.148 0 00-.343-.273c.154-.1.347-.212.592-.332 1.573-.775 2.03-.701 2.138-.69.042.003.043-.02.014-.07-.178-.3-.968-.3-2.043-.029-1.974.615-2.04.44-2.94-.405a23.596 23.596 0 01-.504-.475c-1.122-1.212-.36-3.3-.36-3.3.283-.773.969-2.006.974-2.002l.396-.765c1.013-1.921 1.966-3.742 1.734-4.822-.173-.618-.47-.88-.877-1.245.024-.313.287-.562.404-.658.045-.035.047-.056.01-.087-.28-.326-.24-.691.092-1.066.038-.042.048-.065-.017-.105-.348-.33-.4-.59-.187-1.058.015-.036.01-.05-.036-.071-.278-.144-.06-.738-.954-1.677-.088-.09-.122-.025-.101.066.096.722-.461 1.123-.655 1.62-.109-.183.063-.424-.237-.742-.084-.078-.11-.062-.095.052.09.935-.953 1.146-.665 2.398 0 0-.604-.327-2.38-.498-.322-.032-.72.05-.62.39.017.059.162.149.366.19.38.056 1.157.245 1.157.245.181.042.408.118.567.166.45.135.169.251.169.251-.595.223-.714.26-.93.4a.502.502 0 01-.226.078c-.23.019-.452-.05-.46-.287-.01-.137 0-.17.03-.253.074-.166-.759-.37-1.072-.427-.635-.115-1.59-.155-2.387-.073-.177.005-1.154.105-1.277.488.312-.304.969-.256 1.113-.205.136 1.134.401 1.258 1.52 1.472l2.95.456c.699.088.649.742.229.707l-1.023-.092-.41-.037-.118-.009c-.6-.333-1.393-.66-2.411-.31-.26.07-.704-.008-1.161-.313.188-.168.402-.368.449-.554 0 0-1.09.498-1.514-.328-.042.815.35 1.34 1.366 1.694-.022-.206-.073-.38-.23-.512.164.105.358.196.6.25.436.097.833-.02.958-.05l-.002.036c-.026.228-.123.852-.492 1.115-.038.019-.033.043.01.046.797.064 1.196-.237 1.196-.237s.008.584-.284.838c-.034.025-.02.048.007.048 1.78.008 2.006-.623 4.7-.715.036-.003.051-.017.062-.037.173-.364.514-.854.925-1.027.02-.008.025-.02.004-.039-.438-.461-.384-1.28-.374-1.56.006-.063.035-.054.055-.015.314.632.667 1.29 1.632 1.482.038.003.038.02.013.029-1.136.462-1.535 1.556-1.604 1.903a1.788 1.788 0 00-1.018-.045c-.035.012-.03.025-.002.039.326.16.54.28.624.689.07.364-.023.698-.452 1.043L45.928 34.24c-.467.351-.58 1.095-.799 1.803-.145.637-.548 3.468 1.547 3.851.252.038.811.163 1.213-.334 0 0-.196.057-.359-.019 0 0 .12-.303-.404-.316-.386-.01-.319-.417-.319-.417s.737.248 1.05-.301c0 0-.19.073-.378-.006.062-.829-1.574.396-1.213-1.964.308-.88.906-.72 1.263-.602.34.113.452-.09.473-.2.148.025.338.21.338.21-.1-.62-.66-.846-1.508-1.079l.545-.314 1.947-.877s1.277 2.47 3.12 4.188c-1.266 0-1.875.112-2.346.32 0 0-.222.069-.443.373-.25.347-.465.922-.07 1.842.295.686.922 1.553 2.117 2.64 1.088.976 1.742 2.334-.288 3.13-.59.23-1.174.289-1.445.381 0 0-.989-.278-1.621-.583-.558-.27-1.318-.209-1.85.17-.114.108-.157.153-.19.228-.165.299-.207.508-.02.853 0 0 .174-.5.409-.426.52.405.299-.329.98-.072 0 0-.535.264-.201.933 0 0 .14-.462.323-.384.667.283.156-.354 1.678.076l1.927.786a8.59 8.59 0 011.045.52c.144-.467-.615-.979-.701-1.036 0 0 1.211-1.335 2.374-1.892.26-.125.507-.225.681-.36.266-.26.293-.605-.161-1.153-.1-.093-2.502-2.404-3.288-3.405-.784-1.005-.795-1.587-.096-1.768l2.752-.21c.02.008 1.082-.06 1.652-.101.13-.03.098-.118.007-.14-.915-.355-3.452-1.607-5.395-5.138.885-.293 1.796-.036 2.211.116.115.05.262.064.38-.002l1.161-.749c-.059.204-.27.67-.41.952-.083.18-.006.276.033.335.635 1.004 1.35 2.028 2.453 3.008.107.092.212.202.306.323.495.61.601 1.57-.317 2.897l-.047.071c-.145.236-.403.786-.29 1.595.028.19.077.398.148.614.031.108.064.218.101.331.481 1.472 2.458 3.501 5.309 5.089.14.077.278.15.417.228l-1.24 2.93s-.73-.16-1.362-.504c-.453-.246-1.284-.39-1.845-.055-.123.098-.124.106-.209.212-.188.34-.168.66.002.878 0 0 .222-.596.35-.422.485.445.287-.172.825.06 0 0-.398.436-.037.905 0 0 .112-.423.314-.335.641.336.158-.33 1.64.22 0 0 1.687.811 2.91.855-.126-.393-.961-.9-.961-.9.087-1.737.647-3.455 1.118-4.438.546-1.137-1.822-.863-2.07-2.094l-.247-1.64c-.343-2.04-.41-2.662-.743-3.637-.276-.812-1.112-2.56-1.07-2.831.017-.055.084-.022.144.021.38.358 1.934 2.078 2.14 6.069 0 0-.003.068.176.229 1.984 1.776 4.477 1.46 5.31.57 1.612-1.72.357-3.596-.42-4.353-.778-.756-.984-1.371-.858-1.997.052-.255.104-.323.104-.323a.649.649 0 01.555-.311c.363 0 .653.284.653.633 0 .35-.29.633-.653.633 0 0 .024.432.572.907M39.104 3.194c-.287 1.423.042 2.783.719 3.737.108.145.236.042.147-.131-.731-1.812-.712-3.078-.73-3.683 0-.17-.082-.162-.136.077M39.736 9.08c-.747.747-.864 1.915-.623 2.789.052.19.295.155.273.01-.027-1.41.405-2.39.598-2.76.072-.133-.116-.166-.248-.04" fill="#fff"></path><g transform="translate(32)" fill="none"><mask id="logo-dark_svg__d_zdxpoq1as" fill="#fff"><path id="logo-dark_svg__c_zdxpoq1as" d="M.036.095H8.94v14.82H.036z"></path></mask><path d="M8.856 7.66c-1.023-.063-2.13.262-2.55.583-.173.104-.038.447.227.283.121-.074.665-.518 2.318-.75.111-.02.126-.108.005-.115M2.131 14.911c.186-.008.385.041.54-.33.273-.75.303-1.99-.536-2.556-1.336-.906-.544-1.371.112-2.237C5.784 5.481 7.18.541 7.253.311c.07-.23.007-.336-.131-.013-1.715 4.79-5.448 8.627-6.047 9.366-.6.74-1.868 1.693-.243 2.683 1.265.77.868 1.697.68 2.211-.063.173-.024.363.19.357l.43-.004" fill="#fff" mask="url(#logo-dark_svg__d_zdxpoq1as)"></path></g><path d="M40.815 12.326c-.929-.527-1.9-.888-2.764-1.14.624-2.69.44-4.87.423-4.992-.025-.175-.125-.334-.162.007-.17 1.634-.573 3.329-1.026 4.78a21.909 21.909 0 00-.967-.212c-.659-.13-1.08-.143-1.237.084-.182.205-.054.487.321.542a16.22 16.22 0 011.682.209c-.507 1.505-1.038 2.662-1.348 3.073-.107.13-.06.264.214.302.673.088.748-.118.82-.256.512-.992.877-2.001 1.136-2.961 1.425.3 2.612.675 2.825.755.335.126.348-.067.083-.191" fill="#fff"></path><path d="M38.767 13.015c-.953.296-1.58 1.165-1.761 1.837-.04.149.144.197.227.09.591-.982 1.402-1.623 1.73-1.825.103-.076-.027-.15-.196-.102M21.734 10.65c.122.635.17 1.062.985 1.342.053.022.103 0 .071-.083-.488-1.162.115-1.446.186-1.488.041-.023.795-.429 1.929.326.11.073.112.015.069-.049-.567-.877-1.317-1.554-2.44-1.585-.843-.02-2.565.61-3.455-.088-.048-.04-.104-.037-.067.042.587 1.207 1.706 1.955 2.722 1.583M22.13 15.622c-.288-.197-.84-.855-.572-1.443 0 0 .153-.776 1.402-.972.046-.003.056-.03.009-.047-.787-.29-1.577-.213-2.405.466-.616.512-1.59 2.08-2.535 2.029-.032-.002-.04.02-.013.034 1.059.526 2.083.4 2.65-.499.366.379.625.671 1.446.472.04-.01.04-.026.017-.04M27.006 22.16c-.023.112.025.119.086.045.495-.588.857-.983 1.73-1.295 0 .457-.096 1.244.391 2.054.038.068.057.027.057-.018-.054-2.491 1.888-4.142 2.692-4.844.078-.076.036-.124-.118-.092-.737.226-1.275.435-1.704.643-.377.185-2.699 1.393-3.134 3.507M43.994 22.16c.023.112-.025.119-.086.045-.495-.588-.857-.983-1.73-1.295 0 .457.096 1.244-.391 2.054-.038.068-.057.027-.057-.018.054-2.491-1.888-4.142-2.692-4.844-.078-.076-.036-.124.118-.092.737.226 1.275.435 1.704.643.377.185 2.699 1.393 3.134 3.507" fill="#fff"></path><path d="M24.77 17.328c-.228.516-.446.874-.368 1.645.004.041.027.03.044.003 1.039-1.75 4.981-2.17 6.441-2.312.073-.011.192-.072.038-.123-1.228-.441-2.518-1.234-2.518-1.234-.652-.417-2.258-1.762-.808-3.108.026-.022.018-.036-.017-.033-.551.072-1.502.333-1.422 1.315-.494-1.572-.88-2.152-2.23-2.477-.07-.014-.109.008-.06.069.524.618 1.097 1.579 1.149 2.598-.413-.227-1.591-.542-2.7.19-.031.018-.052.054.01.056.978.003 1.747-.068 3.18.895.835.636 2.732 1.408 3.386 1.44-1.567.164-4.978.469-5.856-.96-.01-.023-.033-.026-.053-.008-.385.295-.293.773.298 1.132-.9.248-1.761.388-2.275 1.916-.027.078.013.052.051.021.698-.603 1.94-1.297 3.71-1.025M48.019 10.42c.078.043.677.327.19 1.489-.035.083.018.105.073.083.809-.28.862-.707.983-1.342 1.017.372 2.136-.376 2.724-1.583.035-.08-.022-.081-.067-.042-.892.697-2.611.067-3.456.088-1.125.031-1.875.708-2.439 1.585-.045.064-.04.122.066.05 1.136-.756 1.888-.35 1.926-.327M52.971 15.655c-.948.05-1.92-1.517-2.539-2.03-.827-.678-1.613-.756-2.403-.465-.044.017-.036.044.01.047 1.247.196 1.403.972 1.403.972.263.588-.287 1.246-.573 1.443-.023.014-.023.03.02.04.816.2 1.077-.093 1.445-.472.566.9 1.586 1.025 2.647.5.031-.015.02-.037-.01-.035" fill="#fff"></path><path d="M47.717 16.416c.592-.36.683-.837.3-1.132-.022-.018-.045-.015-.054.008-.878 1.429-4.292 1.124-5.857.96.653-.032 2.552-.804 3.384-1.44 1.435-.963 2.203-.892 3.184-.895.06-.002.04-.038.01-.055-1.11-.733-2.288-.418-2.7-.191.048-1.02.622-1.98 1.147-2.598.046-.061.01-.083-.062-.069-1.348.325-1.734.905-2.23 2.477.081-.982-.866-1.243-1.42-1.315-.036-.003-.044.011-.02.033 1.45 1.346-.154 2.691-.804 3.108 0 0-1.291.793-2.522 1.234-.15.051-.033.112.04.123 1.46.141 5.405.561 6.443 2.312.015.027.04.038.044-.003.078-.77-.141-1.13-.37-1.645 1.773-.272 3.017.422 3.711 1.025.034.031.077.057.05-.02-.516-1.529-1.373-1.669-2.274-1.917M34.216 15.763c.048.128.18.233.294.233l.353.004c.114 0 .168-.102.119-.233l-.198-.53c-.05-.13-.181-.234-.296-.234l-.35-.003c-.116 0-.169.101-.12.23l.198.533M36.215 15.764c.045.128.18.23.295.235l.352.001c.116.001.166-.103.122-.231l-.2-.54c-.049-.129-.182-.229-.295-.229l-.353.001c-.113.002-.166.106-.118.235l.197.528M37.104 15.437l.137.33c.051.126.17.24.318.233.059-.002.1-.023.1-.023a.482.482 0 00.341-.47c.004-.278-.199-.5-.451-.506h-.003L37.155 15c-.13 0-.19.103-.135.233l.084.204M33.565 15.97c.09.024.218.03.218.03.19-.015.27-.119.18-.252l-.46-.658c-.033-.052-.06-.085-.094-.09-.066-.007-.371.106-.407.456-.027.237.236.44.563.514M35.762 21.362c-.034.032-.112.073-.257-.013-.097-.057-.512-.533-.593-1.096a1.53 1.53 0 01-.017-.242c0-.41.157-1.031.402-1.068.004 0 .108-.018.175.04.04.035.058.087.053.156l-.009.055-.003.02c-.015.065-.06.262-.06.534 0 .12.01.245.032.38.074.52.228.818.289.936.053.085.061.227-.012.298zm-1.03.389c-.078.057-.208.034-.277-.023-.12-.1-.588-.61-.685-1.272a2.077 2.077 0 01-.019-.281c0-.579.227-1.2.446-1.232l.027-.003c.133 0 .203.06.203.175l-.009.107a3.235 3.235 0 00-.037 1.094c.093.63.278.985.348 1.12l.004.006a.41.41 0 01.055.185c0 .068-.03.105-.057.124zm-1.073.347c-.047.034-.131.051-.27-.06-.125-.102-.654-.671-.763-1.419a2.516 2.516 0 01-.022-.325c0-.624.25-1.319.485-1.351a.216.216 0 01.151.036c.059.041.08.106.08.17a.33.33 0 01-.011.086 3.431 3.431 0 00-.04 1.235c.106.723.323 1.133.395 1.267l.027.059.018.042c.037.079.024.207-.05.26zM37.934 18l-4.659.006-.117.386-.163.013c-.364.033-.493.072-.63.326 0 0-1.013 1.834.334 3.44.205.24.557.575.776.612.225.31.768.197.768.197.515-.119 2.231-.782 2.858-1.281.652-.52 1.067-.731.833-3.699z" fill="#fff"></path><path d="M34.078 26.947c1.22.318 1.891-.876 2.063-1.418.216.233.592.493 1.198.224a2.75 2.75 0 00.638-.433c.164-.147.342-.32.538-.54.935-1.053 1.49-1.164 1.79-1.07.16.054.249.164.286.223.012.02.024.046.037.08.051.142.07.392-.068.674a1.476 1.476 0 01-.448.513c.193-.027.48-.155.663-.402.085-.12.2-.332.217-.514.127-1.344-1.306-1.585-1.306-1.585a.925.925 0 00-.384.008c-.832.148-2.318.958-2.87 1.345 1.402-1.695 2.371-1.933 2.371-1.933s-.036-.033-.092-.117c-.099-.145-.27-.447-.449-1.002-.725 1.161-2.639 1.747-4.01 1.958-.326.295-1.161 1.373-1.241 2.362-.046.526.007 1.35 1.067 1.627" fill="#fff"></path></g></svg>