<svg width="45" height="44" viewBox="0 0 45 44" fill="none" xmlns="http://www.w3.org/2000/svg">
<path d="M33.4854 10.8408C27.4988 4.85431 17.798 4.85431 11.8115 10.8408C5.82496 16.8274 5.82496 26.5282 11.8115 32.5147C17.798 38.5013 27.4988 38.5013 33.4854 32.5147C39.4719 26.5282 39.4719 16.8274 33.4854 10.8408ZM27.7173 29.1937C27.4289 29.4821 26.957 29.4821 26.6686 29.1937L22.6484 25.1736L18.6283 29.1937C18.3399 29.4821 17.8679 29.4821 17.5795 29.1937L15.1325 26.7467C14.8441 26.4583 14.8441 25.9863 15.1325 25.6979L19.1527 21.6778L15.1325 17.6576C14.8441 17.3692 14.8441 16.8973 15.1325 16.6089L17.5795 14.1618C17.8679 13.8734 18.3399 13.8734 18.6283 14.1618L22.6484 18.182L26.6686 14.1618C26.957 13.8734 27.4289 13.8734 27.7173 14.1618L30.1644 16.6089C30.4528 16.8973 30.4528 17.3692 30.1644 17.6576L26.1442 21.6778L30.1644 25.6979C30.4528 25.9863 30.4528 26.4583 30.1644 26.7467L27.7173 29.1937Z" fill="white"/>
</svg>
